<mxfile host="app.diagrams.net" modified="2022-08-16T07:01:20.042Z" agent="5.0 (Windows)" etag="vhim5WA2SAApSWnPjAF5" version="20.2.2" type="github" pages="2">
  <diagram name="Документ инспекции" id="03018318-947c-dd8e-b7a3-06fadd420f32">
    <mxGraphModel dx="2522" dy="1602" grid="1" gridSize="10" guides="1" tooltips="1" connect="1" arrows="1" fold="1" page="1" pageScale="1" pageWidth="1100" pageHeight="850" background="#ffffff" math="0" shadow="0">
      <root>
        <mxCell id="0" />
        <mxCell id="1" parent="0" />
        <mxCell id="YETUvm6ZgC-k4a_B2DAo-1" value="&lt;b&gt;Результат инспекции единицы оборудования&lt;/b&gt;" style="strokeWidth=1;shadow=0;dashed=0;align=center;html=1;shape=mxgraph.mockup.containers.window;align=left;verticalAlign=top;spacingLeft=8;strokeColor2=#008cff;strokeColor3=#c4c4c4;fontColor=#666666;mainText=;fontSize=17;labelBackgroundColor=none;" parent="1" vertex="1">
          <mxGeometry x="-460" y="60" width="2660" height="1140" as="geometry" />
        </mxCell>
        <UserObject label="Номер документа" placeholders="1" name="Variable" id="YETUvm6ZgC-k4a_B2DAo-5">
          <mxCell style="text;html=1;strokeColor=none;fillColor=none;align=left;verticalAlign=middle;whiteSpace=wrap;overflow=hidden;" parent="1" vertex="1">
            <mxGeometry x="292" y="179" width="140" height="20" as="geometry" />
          </mxCell>
        </UserObject>
        <mxCell id="YETUvm6ZgC-k4a_B2DAo-6" value="И-2034" style="strokeWidth=1;shadow=0;dashed=0;align=center;html=1;shape=mxgraph.mockup.text.textBox;fontColor=#666666;align=left;fontSize=17;spacingLeft=4;spacingTop=-3;strokeColor=#666666;mainText=" parent="1" vertex="1">
          <mxGeometry x="292" y="199" width="150" height="30" as="geometry" />
        </mxCell>
        <mxCell id="YETUvm6ZgC-k4a_B2DAo-7" value="16.06.2022 16:26" style="strokeWidth=1;shadow=0;dashed=0;align=center;html=1;shape=mxgraph.mockup.forms.comboBox;strokeColor=#999999;fillColor=#ddeeff;align=left;fillColor2=#aaddff;mainText=;fontColor=#666666;fontSize=17;spacingLeft=3;" parent="1" vertex="1">
          <mxGeometry x="480" y="199" width="250" height="30" as="geometry" />
        </mxCell>
        <UserObject label="Дата документа" placeholders="1" name="Variable" id="YETUvm6ZgC-k4a_B2DAo-8">
          <mxCell style="text;html=1;strokeColor=none;fillColor=none;align=left;verticalAlign=middle;whiteSpace=wrap;overflow=hidden;" parent="1" vertex="1">
            <mxGeometry x="480" y="179" width="140" height="20" as="geometry" />
          </mxCell>
        </UserObject>
        <UserObject label="Заключение" placeholders="1" name="Variable" id="YETUvm6ZgC-k4a_B2DAo-9">
          <mxCell style="text;html=1;strokeColor=none;fillColor=none;align=left;verticalAlign=middle;whiteSpace=wrap;overflow=hidden;" parent="1" vertex="1">
            <mxGeometry x="285" y="930" width="140" height="20" as="geometry" />
          </mxCell>
        </UserObject>
        <mxCell id="YETUvm6ZgC-k4a_B2DAo-12" value="Оборудование годное к эксплуатации" style="shape=rect;fillColor=#ffffff;strokeColor=#666666;shadow=1;fontColor=#000000;fontSize=12;fontStyle=0;verticalAlign=top;spacingBottom=0;spacingLeft=16;spacingTop=20;align=left;strokeWidth=2;" parent="1" vertex="1">
          <mxGeometry x="285" y="950" width="900" height="90" as="geometry" />
        </mxCell>
        <UserObject label="Показатели" placeholders="1" name="Variable" id="YETUvm6ZgC-k4a_B2DAo-19">
          <mxCell style="text;html=1;strokeColor=none;fillColor=none;align=left;verticalAlign=middle;whiteSpace=wrap;overflow=hidden;fontSize=18;fontStyle=1" parent="1" vertex="1">
            <mxGeometry x="1215" y="214" width="125" height="35" as="geometry" />
          </mxCell>
        </UserObject>
        <mxCell id="Z_BnlZCCOBM-jQ7rvPCf-9" value="" style="edgeStyle=orthogonalEdgeStyle;rounded=0;orthogonalLoop=1;jettySize=auto;html=1;fontSize=12;" parent="1" source="YETUvm6ZgC-k4a_B2DAo-20" target="Z_BnlZCCOBM-jQ7rvPCf-8" edge="1">
          <mxGeometry relative="1" as="geometry" />
        </mxCell>
        <mxCell id="YETUvm6ZgC-k4a_B2DAo-20" value="&lt;div style=&quot;font-size: 12px;&quot;&gt;Завышение (+) или занижение (-) фрикционного &lt;br&gt;&lt;/div&gt;&lt;div style=&quot;font-size: 12px;&quot;&gt;клина / левый&lt;/div&gt;" style="strokeWidth=1;shadow=0;dashed=0;align=center;html=1;shape=mxgraph.mockup.forms.comboBox;strokeColor=#999999;fillColor=#ddeeff;align=left;fillColor2=#aaddff;mainText=;fontColor=#666666;fontSize=12;spacingLeft=3;" parent="1" vertex="1">
          <mxGeometry x="1270" y="305" width="320" height="55" as="geometry" />
        </mxCell>
        <mxCell id="YETUvm6ZgC-k4a_B2DAo-21" value="&lt;div style=&quot;font-size: 12px;&quot;&gt;Завышение (+) или занижение (-) фрикционного &lt;br&gt;&lt;/div&gt;&lt;div style=&quot;font-size: 12px;&quot;&gt;клина / правый&lt;/div&gt;" style="strokeWidth=1;shadow=0;dashed=0;align=center;html=1;shape=mxgraph.mockup.forms.comboBox;strokeColor=#999999;fillColor=#ddeeff;align=left;fillColor2=#aaddff;mainText=;fontColor=#666666;fontSize=12;spacingLeft=3;" parent="1" vertex="1">
          <mxGeometry x="1270" y="370" width="320" height="50" as="geometry" />
        </mxCell>
        <mxCell id="YETUvm6ZgC-k4a_B2DAo-25" value="&lt;div style=&quot;font-size: 12px;&quot;&gt;Суммарный продольный зазор между &lt;br&gt;&lt;/div&gt;&lt;div style=&quot;font-size: 12px;&quot;&gt;направляющими боковой рамы тележки и &lt;br&gt;&lt;/div&gt;&lt;div style=&quot;font-size: 12px;&quot;&gt;корпусом буксы /левый&lt;br style=&quot;font-size: 12px;&quot;&gt;&lt;/div&gt;" style="strokeWidth=1;shadow=0;dashed=0;align=center;html=1;shape=mxgraph.mockup.forms.comboBox;strokeColor=#999999;fillColor=#ddeeff;align=left;fillColor2=#aaddff;mainText=;fontColor=#666666;fontSize=12;spacingLeft=3;" parent="1" vertex="1">
          <mxGeometry x="1270" y="430" width="320" height="60" as="geometry" />
        </mxCell>
        <mxCell id="YETUvm6ZgC-k4a_B2DAo-42" value="" style="shape=ellipse;dashed=0;strokeColor=default;shadow=1;fontSize=13;align=center;verticalAlign=top;labelPosition=center;verticalLabelPosition=bottom;html=1;aspect=fixed;strokeWidth=2;" parent="1" vertex="1">
          <mxGeometry x="1650" y="209" width="40" height="40" as="geometry" />
        </mxCell>
        <mxCell id="YETUvm6ZgC-k4a_B2DAo-43" value="" style="dashed=0;html=1;shape=mxgraph.gmdl.plus;strokeColor=#737373;strokeWidth=2;shadow=0;sketch=0;" parent="YETUvm6ZgC-k4a_B2DAo-42" vertex="1">
          <mxGeometry x="12" y="12" width="16" height="16" as="geometry" />
        </mxCell>
        <mxCell id="YETUvm6ZgC-k4a_B2DAo-44" value="" style="shape=ellipse;dashed=0;shadow=1;fontSize=13;align=center;verticalAlign=top;labelPosition=center;verticalLabelPosition=bottom;html=1;aspect=fixed;strokeWidth=2;" parent="1" vertex="1">
          <mxGeometry x="1700" y="209" width="40" height="40" as="geometry" />
        </mxCell>
        <UserObject label="--" placeholders="1" name="Variable" id="YETUvm6ZgC-k4a_B2DAo-47">
          <mxCell style="text;html=1;strokeColor=none;fillColor=none;align=center;verticalAlign=middle;whiteSpace=wrap;overflow=hidden;fontStyle=1;fontSize=16;fontColor=#808080;strokeWidth=2;" parent="1" vertex="1">
            <mxGeometry x="1710" y="219" width="20" height="20" as="geometry" />
          </mxCell>
        </UserObject>
        <mxCell id="Z_BnlZCCOBM-jQ7rvPCf-7" value="" style="edgeStyle=orthogonalEdgeStyle;rounded=0;orthogonalLoop=1;jettySize=auto;html=1;fontSize=12;" parent="1" source="YETUvm6ZgC-k4a_B2DAo-48" target="Z_BnlZCCOBM-jQ7rvPCf-6" edge="1">
          <mxGeometry relative="1" as="geometry" />
        </mxCell>
        <mxCell id="YETUvm6ZgC-k4a_B2DAo-48" value="Сформировать запрос на ремонт" style="strokeWidth=3;shadow=1;dashed=0;align=center;html=1;shape=mxgraph.mockup.buttons.button;mainText=;buttonStyle=round;fontSize=14;fontStyle=1;whiteSpace=wrap;fillColor=#e51400;fontColor=#ffffff;strokeColor=#B20000;" parent="1" vertex="1">
          <mxGeometry x="1100" y="-40" width="150" height="35" as="geometry" />
        </mxCell>
        <mxCell id="Z_BnlZCCOBM-jQ7rvPCf-1" value="Сохранить" style="strokeWidth=1;shadow=0;dashed=0;align=center;html=1;shape=mxgraph.mockup.buttons.button;strokeColor=#666666;fontColor=#ffffff;mainText=;buttonStyle=round;fontSize=17;fontStyle=1;fillColor=#008cff;whiteSpace=wrap;" parent="1" vertex="1">
          <mxGeometry x="1750" y="204" width="150" height="50" as="geometry" />
        </mxCell>
        <mxCell id="Z_BnlZCCOBM-jQ7rvPCf-2" value="Закрыть" style="strokeWidth=1;shadow=0;dashed=0;align=center;html=1;shape=mxgraph.mockup.buttons.button;strokeColor=#666666;fontColor=#ffffff;mainText=;buttonStyle=round;fontSize=17;fontStyle=1;fillColor=#008cff;whiteSpace=wrap;" parent="1" vertex="1">
          <mxGeometry x="1030" y="1110" width="150" height="50" as="geometry" />
        </mxCell>
        <mxCell id="Z_BnlZCCOBM-jQ7rvPCf-4" value="Сохранить и закрыть" style="strokeWidth=1;shadow=0;dashed=0;align=center;html=1;shape=mxgraph.mockup.buttons.button;strokeColor=#666666;fontColor=#ffffff;mainText=;buttonStyle=round;fontSize=17;fontStyle=1;fillColor=#008cff;whiteSpace=wrap;" parent="1" vertex="1">
          <mxGeometry x="860" y="1110" width="150" height="50" as="geometry" />
        </mxCell>
        <mxCell id="Z_BnlZCCOBM-jQ7rvPCf-6" value="Пока не реализовывать" style="whiteSpace=wrap;html=1;fontSize=14;fillColor=#e51400;strokeColor=#B20000;fontColor=#ffffff;strokeWidth=3;shadow=1;dashed=0;fontStyle=1;" parent="1" vertex="1">
          <mxGeometry x="1306" y="-52.5" width="120" height="60" as="geometry" />
        </mxCell>
        <mxCell id="Z_BnlZCCOBM-jQ7rvPCf-8" value="Ссылка на таблицу&lt;br&gt;infrastructure.ReadingTypes" style="whiteSpace=wrap;html=1;fontSize=17;align=left;fillColor=#ddeeff;strokeColor=#999999;fontColor=#666666;strokeWidth=1;shadow=0;dashed=0;spacingLeft=3;" parent="1" vertex="1">
          <mxGeometry x="1360" y="155" width="230" height="60" as="geometry" />
        </mxCell>
        <mxCell id="Z_BnlZCCOBM-jQ7rvPCf-10" value="&lt;table cellpadding=&quot;4&quot; cellspacing=&quot;0&quot; border=&quot;1&quot; style=&quot;font-size:1em;width:100%;height:100%;&quot;&gt;&lt;tbody&gt;&lt;tr&gt;&lt;th&gt;№ п/п&lt;/th&gt;&lt;th&gt;Номер документа&lt;/th&gt;&lt;td&gt;&lt;b&gt;Ед.оборудования&lt;/b&gt;&lt;/td&gt;&lt;td&gt;&lt;b&gt;Дата инспекции&lt;/b&gt;&lt;/td&gt;&lt;td&gt;&lt;b&gt;Инспектор&lt;/b&gt;&lt;/td&gt;&lt;/tr&gt;&lt;tr&gt;&lt;td&gt;1&lt;/td&gt;&lt;td&gt;И-2034&lt;/td&gt;&lt;td&gt;Колесная пара V-02-1252&lt;/td&gt;&lt;td&gt;16.06.2022 16:26&lt;/td&gt;&lt;td&gt;Жаксалыков К.&lt;/td&gt;&lt;/tr&gt;&lt;tr&gt;&lt;td&gt;&lt;/td&gt;&lt;td&gt;&lt;/td&gt;&lt;td&gt;&lt;br&gt;&lt;/td&gt;&lt;td&gt;&lt;br&gt;&lt;/td&gt;&lt;td&gt;&lt;br&gt;&lt;/td&gt;&lt;/tr&gt;&lt;/tbody&gt;&lt;/table&gt; " style="verticalAlign=top;align=left;overflow=fill;fontSize=12;fontFamily=Helvetica;html=1;shadow=1;fontColor=#000000;strokeColor=#666666;strokeWidth=2;fillColor=#FFFFFF;" parent="1" vertex="1">
          <mxGeometry x="-440" y="140" width="670" height="80" as="geometry" />
        </mxCell>
        <mxCell id="Z_BnlZCCOBM-jQ7rvPCf-11" value="" style="verticalLabelPosition=bottom;shadow=0;dashed=0;align=center;html=1;verticalAlign=top;strokeWidth=1;shape=mxgraph.mockup.navigation.scrollBar;strokeColor=#999999;barPos=100;fillColor2=#99ddff;strokeColor2=none;direction=north;fontSize=12;fontColor=#000000;fillColor=none;" parent="1" vertex="1">
          <mxGeometry x="240" y="100" width="20" height="970" as="geometry" />
        </mxCell>
        <mxCell id="Z_BnlZCCOBM-jQ7rvPCf-12" value="" style="verticalLabelPosition=bottom;shadow=0;dashed=0;align=center;html=1;verticalAlign=top;strokeWidth=1;shape=mxgraph.mockup.forms.splitter;strokeColor=#999999;direction=north;fontSize=12;fontColor=#000000;fillColor=#FFFFFF;" parent="1" vertex="1">
          <mxGeometry x="260" y="100" width="10" height="970" as="geometry" />
        </mxCell>
        <mxCell id="Z_BnlZCCOBM-jQ7rvPCf-13" value="" style="shape=ellipse;dashed=0;strokeColor=default;shadow=1;fontSize=13;align=center;verticalAlign=top;labelPosition=center;verticalLabelPosition=bottom;html=1;aspect=fixed;strokeWidth=2;" parent="1" vertex="1">
          <mxGeometry x="130" y="95" width="40" height="40" as="geometry" />
        </mxCell>
        <mxCell id="Z_BnlZCCOBM-jQ7rvPCf-14" value="" style="dashed=0;html=1;shape=mxgraph.gmdl.plus;strokeColor=#737373;strokeWidth=2;shadow=0;sketch=0;" parent="Z_BnlZCCOBM-jQ7rvPCf-13" vertex="1">
          <mxGeometry x="12" y="12" width="16" height="16" as="geometry" />
        </mxCell>
        <mxCell id="Z_BnlZCCOBM-jQ7rvPCf-17" value="" style="shape=ellipse;dashed=0;shadow=1;fontSize=13;align=center;verticalAlign=top;labelPosition=center;verticalLabelPosition=bottom;html=1;aspect=fixed;strokeWidth=2;" parent="1" vertex="1">
          <mxGeometry x="180" y="98" width="40" height="40" as="geometry" />
        </mxCell>
        <UserObject label="--" placeholders="1" name="Variable" id="Z_BnlZCCOBM-jQ7rvPCf-15">
          <mxCell style="text;html=1;strokeColor=none;fillColor=none;align=center;verticalAlign=middle;whiteSpace=wrap;overflow=hidden;fontStyle=1;fontSize=16;fontColor=#808080;" parent="1" vertex="1">
            <mxGeometry x="190" y="105" width="20" height="20" as="geometry" />
          </mxCell>
        </UserObject>
        <mxCell id="5jPzE2AC7TKcDfSd6P9n-1" value="" style="verticalLabelPosition=bottom;shadow=0;dashed=0;align=center;html=1;verticalAlign=top;strokeWidth=1;shape=mxgraph.mockup.forms.splitter;strokeColor=#999999;direction=north;fontSize=12;fontColor=#000000;fillColor=#FFFFFF;" parent="1" vertex="1">
          <mxGeometry x="1200" y="110" width="10" height="970" as="geometry" />
        </mxCell>
        <mxCell id="5jPzE2AC7TKcDfSd6P9n-2" value="" style="verticalLabelPosition=bottom;shadow=0;dashed=0;align=center;html=1;verticalAlign=top;strokeWidth=1;shape=mxgraph.mockup.forms.splitter;strokeColor=#999999;fontSize=18;" parent="1" vertex="1">
          <mxGeometry x="290" y="920" width="890" height="10" as="geometry" />
        </mxCell>
        <mxCell id="5jPzE2AC7TKcDfSd6P9n-4" value="И-2034" style="strokeWidth=1;shadow=0;dashed=0;align=center;html=1;shape=mxgraph.mockup.text.textBox;fontColor=#666666;align=left;fontSize=17;spacingLeft=4;spacingTop=-3;strokeColor=#666666;mainText=" parent="1" vertex="1">
          <mxGeometry x="292" y="274" width="830" height="30" as="geometry" />
        </mxCell>
        <UserObject label="Описание документа" placeholders="1" name="Variable" id="5jPzE2AC7TKcDfSd6P9n-5">
          <mxCell style="text;html=1;strokeColor=none;fillColor=none;align=left;verticalAlign=middle;whiteSpace=wrap;overflow=hidden;" parent="1" vertex="1">
            <mxGeometry x="292" y="249" width="140" height="20" as="geometry" />
          </mxCell>
        </UserObject>
        <UserObject label="Инспекция оборудования" placeholders="1" name="Variable" id="5jPzE2AC7TKcDfSd6P9n-9">
          <mxCell style="text;html=1;strokeColor=#82b366;fillColor=#d5e8d4;align=left;verticalAlign=middle;whiteSpace=wrap;overflow=hidden;" parent="1" vertex="1">
            <mxGeometry x="295" y="125" width="150" height="30" as="geometry" />
          </mxCell>
        </UserObject>
        <UserObject label="Тип документа" placeholders="1" name="Variable" id="5jPzE2AC7TKcDfSd6P9n-13">
          <mxCell style="text;html=1;strokeColor=none;fillColor=none;align=left;verticalAlign=middle;whiteSpace=wrap;overflow=hidden;fontStyle=1" parent="1" vertex="1">
            <mxGeometry x="295" y="105" width="95" height="20" as="geometry" />
          </mxCell>
        </UserObject>
        <UserObject label="Рабочий процесс" placeholders="1" name="Variable" id="5jPzE2AC7TKcDfSd6P9n-15">
          <mxCell style="text;html=1;strokeColor=none;fillColor=none;align=left;verticalAlign=middle;whiteSpace=wrap;overflow=hidden;fontStyle=1" parent="1" vertex="1">
            <mxGeometry x="480" y="104" width="220" height="20" as="geometry" />
          </mxCell>
        </UserObject>
        <mxCell id="5jPzE2AC7TKcDfSd6P9n-16" value="Стандартная инспекция" style="strokeWidth=1;shadow=0;dashed=0;align=center;html=1;shape=mxgraph.mockup.forms.comboBox;align=left;fillColor2=#aaddff;mainText=;fontSize=17;spacingLeft=3;labelBackgroundColor=#CCCCCC;fillColor=#cce5ff;strokeColor=#36393d;" parent="1" vertex="1">
          <mxGeometry x="480" y="125" width="250" height="30" as="geometry" />
        </mxCell>
        <UserObject label="Текущий статус" placeholders="1" name="Variable" id="5jPzE2AC7TKcDfSd6P9n-17">
          <mxCell style="text;html=1;strokeColor=none;fillColor=none;align=left;verticalAlign=middle;whiteSpace=wrap;overflow=hidden;fontStyle=1" parent="1" vertex="1">
            <mxGeometry x="800" y="104" width="220" height="20" as="geometry" />
          </mxCell>
        </UserObject>
        <mxCell id="5jPzE2AC7TKcDfSd6P9n-18" value="В работе" style="strokeWidth=1;shadow=0;dashed=0;align=center;html=1;shape=mxgraph.mockup.forms.comboBox;align=left;fillColor2=#aaddff;mainText=;fontSize=17;spacingLeft=3;fillColor=#cce5ff;strokeColor=#36393d;" parent="1" vertex="1">
          <mxGeometry x="800" y="125" width="250" height="30" as="geometry" />
        </mxCell>
        <mxCell id="5jPzE2AC7TKcDfSd6P9n-19" value="" style="verticalLabelPosition=bottom;shadow=0;dashed=0;align=center;html=1;verticalAlign=top;strokeWidth=1;shape=mxgraph.mockup.markup.line;strokeColor=#999999;labelBackgroundColor=#CCCCCC;fontSize=18;" parent="1" vertex="1">
          <mxGeometry x="292" y="159" width="870" height="20" as="geometry" />
        </mxCell>
        <UserObject label="1" placeholders="1" name="Variable" id="8yjtcqBFSqYt93M6oK_Y-1">
          <mxCell style="text;html=1;strokeColor=none;fillColor=none;align=left;verticalAlign=middle;whiteSpace=wrap;overflow=hidden;" parent="1" vertex="1">
            <mxGeometry x="1230" y="322.5" width="30" height="20" as="geometry" />
          </mxCell>
        </UserObject>
        <UserObject label="2" placeholders="1" name="Variable" id="8yjtcqBFSqYt93M6oK_Y-2">
          <mxCell style="text;html=1;strokeColor=none;fillColor=none;align=left;verticalAlign=middle;whiteSpace=wrap;overflow=hidden;" parent="1" vertex="1">
            <mxGeometry x="1230" y="385" width="30" height="20" as="geometry" />
          </mxCell>
        </UserObject>
        <UserObject label="3" placeholders="1" name="Variable" id="8yjtcqBFSqYt93M6oK_Y-3">
          <mxCell style="text;html=1;strokeColor=none;fillColor=none;align=left;verticalAlign=middle;whiteSpace=wrap;overflow=hidden;" parent="1" vertex="1">
            <mxGeometry x="1230" y="445" width="30" height="20" as="geometry" />
          </mxCell>
        </UserObject>
        <mxCell id="8yjtcqBFSqYt93M6oK_Y-4" value="&lt;div style=&quot;font-size: 12px;&quot;&gt;Суммарный продольный зазор между &lt;br&gt;&lt;/div&gt;&lt;div style=&quot;font-size: 12px;&quot;&gt;направляющими боковой рамы тележки и &lt;br&gt;&lt;/div&gt;&lt;div style=&quot;font-size: 12px;&quot;&gt;корпусом буксы / правый&lt;br&gt;&lt;/div&gt;" style="strokeWidth=1;shadow=0;dashed=0;align=center;html=1;shape=mxgraph.mockup.forms.comboBox;strokeColor=#999999;fillColor=#ddeeff;align=left;fillColor2=#aaddff;mainText=;fontColor=#666666;fontSize=12;spacingLeft=3;" parent="1" vertex="1">
          <mxGeometry x="1270" y="500" width="320" height="60" as="geometry" />
        </mxCell>
        <UserObject label="4" placeholders="1" name="Variable" id="8yjtcqBFSqYt93M6oK_Y-5">
          <mxCell style="text;html=1;strokeColor=none;fillColor=none;align=left;verticalAlign=middle;whiteSpace=wrap;overflow=hidden;" parent="1" vertex="1">
            <mxGeometry x="1230" y="520" width="30" height="20" as="geometry" />
          </mxCell>
        </UserObject>
        <mxCell id="8yjtcqBFSqYt93M6oK_Y-6" value="&lt;div style=&quot;font-size: 12px;&quot;&gt;Суммарный поперечный зазор между &lt;br&gt;&lt;/div&gt;&lt;div style=&quot;font-size: 12px;&quot;&gt;направляющими боковой рамы тележки и &lt;br&gt;&lt;/div&gt;&lt;div style=&quot;font-size: 12px;&quot;&gt;корпусом буксы / левый&lt;/div&gt;" style="strokeWidth=1;shadow=0;dashed=0;align=center;html=1;shape=mxgraph.mockup.forms.comboBox;strokeColor=#999999;fillColor=#ddeeff;align=left;fillColor2=#aaddff;mainText=;fontColor=#666666;fontSize=12;spacingLeft=3;" parent="1" vertex="1">
          <mxGeometry x="1270" y="570" width="320" height="60" as="geometry" />
        </mxCell>
        <mxCell id="8yjtcqBFSqYt93M6oK_Y-7" value="&lt;div style=&quot;font-size: 12px;&quot;&gt;Суммарный поперечный зазор между &lt;br&gt;&lt;/div&gt;&lt;div style=&quot;font-size: 12px;&quot;&gt;направляющими боковой рамы тележки и &lt;br&gt;&lt;/div&gt;&lt;div style=&quot;font-size: 12px;&quot;&gt;корпусом буксы / правый&lt;/div&gt;" style="strokeWidth=1;shadow=0;dashed=0;align=center;html=1;shape=mxgraph.mockup.forms.comboBox;strokeColor=#999999;fillColor=#ddeeff;align=left;fillColor2=#aaddff;mainText=;fontColor=#666666;fontSize=12;spacingLeft=3;" parent="1" vertex="1">
          <mxGeometry x="1270" y="640" width="320" height="60" as="geometry" />
        </mxCell>
        <UserObject label="5" placeholders="1" name="Variable" id="8yjtcqBFSqYt93M6oK_Y-9">
          <mxCell style="text;html=1;strokeColor=none;fillColor=none;align=left;verticalAlign=middle;whiteSpace=wrap;overflow=hidden;" parent="1" vertex="1">
            <mxGeometry x="1230" y="590" width="30" height="20" as="geometry" />
          </mxCell>
        </UserObject>
        <UserObject label="6" placeholders="1" name="Variable" id="8yjtcqBFSqYt93M6oK_Y-10">
          <mxCell style="text;html=1;strokeColor=none;fillColor=none;align=left;verticalAlign=middle;whiteSpace=wrap;overflow=hidden;" parent="1" vertex="1">
            <mxGeometry x="1230" y="660" width="30" height="20" as="geometry" />
          </mxCell>
        </UserObject>
        <mxCell id="8yjtcqBFSqYt93M6oK_Y-11" value="&lt;div&gt;Зазор между скользунами тележек и рамы &lt;br&gt;&lt;/div&gt;&lt;div&gt;вагона/ левый&lt;br&gt;&lt;/div&gt;" style="strokeWidth=1;shadow=0;dashed=0;align=center;html=1;shape=mxgraph.mockup.forms.comboBox;strokeColor=#999999;fillColor=#ddeeff;align=left;fillColor2=#aaddff;mainText=;fontColor=#666666;fontSize=12;spacingLeft=3;" parent="1" vertex="1">
          <mxGeometry x="1270" y="710" width="320" height="40" as="geometry" />
        </mxCell>
        <mxCell id="8yjtcqBFSqYt93M6oK_Y-12" value="&lt;div&gt;Зазор между скользунами тележек и рамы &lt;br&gt;&lt;/div&gt;&lt;div&gt;вагона/ правый&lt;/div&gt;" style="strokeWidth=1;shadow=0;dashed=0;align=center;html=1;shape=mxgraph.mockup.forms.comboBox;strokeColor=#999999;fillColor=#ddeeff;align=left;fillColor2=#aaddff;mainText=;fontColor=#666666;fontSize=12;spacingLeft=3;" parent="1" vertex="1">
          <mxGeometry x="1270" y="760" width="320" height="40" as="geometry" />
        </mxCell>
        <UserObject label="7" placeholders="1" name="Variable" id="8yjtcqBFSqYt93M6oK_Y-13">
          <mxCell style="text;html=1;strokeColor=none;fillColor=none;align=left;verticalAlign=middle;whiteSpace=wrap;overflow=hidden;" parent="1" vertex="1">
            <mxGeometry x="1230" y="720" width="30" height="20" as="geometry" />
          </mxCell>
        </UserObject>
        <UserObject label="8" placeholders="1" name="Variable" id="8yjtcqBFSqYt93M6oK_Y-14">
          <mxCell style="text;html=1;strokeColor=none;fillColor=none;align=left;verticalAlign=middle;whiteSpace=wrap;overflow=hidden;" parent="1" vertex="1">
            <mxGeometry x="1230" y="770" width="30" height="20" as="geometry" />
          </mxCell>
        </UserObject>
        <mxCell id="8yjtcqBFSqYt93M6oK_Y-15" value="мм" style="strokeWidth=1;shadow=0;dashed=0;align=center;html=1;shape=mxgraph.mockup.forms.comboBox;strokeColor=#999999;fillColor=#ddeeff;align=left;fillColor2=#aaddff;mainText=;fontColor=#666666;fontSize=12;spacingLeft=3;" parent="1" vertex="1">
          <mxGeometry x="1610" y="304" width="90" height="33.5" as="geometry" />
        </mxCell>
        <mxCell id="8yjtcqBFSqYt93M6oK_Y-16" value="мм" style="strokeWidth=1;shadow=0;dashed=0;align=center;html=1;shape=mxgraph.mockup.forms.comboBox;strokeColor=#999999;fillColor=#ddeeff;align=left;fillColor2=#aaddff;mainText=;fontColor=#666666;fontSize=12;spacingLeft=3;" parent="1" vertex="1">
          <mxGeometry x="1610" y="370" width="90" height="33.5" as="geometry" />
        </mxCell>
        <mxCell id="8yjtcqBFSqYt93M6oK_Y-17" value="мм" style="strokeWidth=1;shadow=0;dashed=0;align=center;html=1;shape=mxgraph.mockup.forms.comboBox;strokeColor=#999999;fillColor=#ddeeff;align=left;fillColor2=#aaddff;mainText=;fontColor=#666666;fontSize=12;spacingLeft=3;" parent="1" vertex="1">
          <mxGeometry x="1610" y="430" width="90" height="33.5" as="geometry" />
        </mxCell>
        <mxCell id="8yjtcqBFSqYt93M6oK_Y-18" value="мм" style="strokeWidth=1;shadow=0;dashed=0;align=center;html=1;shape=mxgraph.mockup.forms.comboBox;strokeColor=#999999;fillColor=#ddeeff;align=left;fillColor2=#aaddff;mainText=;fontColor=#666666;fontSize=12;spacingLeft=3;" parent="1" vertex="1">
          <mxGeometry x="1610" y="500" width="90" height="33.5" as="geometry" />
        </mxCell>
        <mxCell id="8yjtcqBFSqYt93M6oK_Y-19" value="мм" style="strokeWidth=1;shadow=0;dashed=0;align=center;html=1;shape=mxgraph.mockup.forms.comboBox;strokeColor=#999999;fillColor=#ddeeff;align=left;fillColor2=#aaddff;mainText=;fontColor=#666666;fontSize=12;spacingLeft=3;" parent="1" vertex="1">
          <mxGeometry x="1610" y="568.25" width="90" height="33.5" as="geometry" />
        </mxCell>
        <mxCell id="8yjtcqBFSqYt93M6oK_Y-20" value="мм" style="strokeWidth=1;shadow=0;dashed=0;align=center;html=1;shape=mxgraph.mockup.forms.comboBox;strokeColor=#999999;fillColor=#ddeeff;align=left;fillColor2=#aaddff;mainText=;fontColor=#666666;fontSize=12;spacingLeft=3;" parent="1" vertex="1">
          <mxGeometry x="1610" y="640" width="90" height="33.5" as="geometry" />
        </mxCell>
        <mxCell id="8yjtcqBFSqYt93M6oK_Y-21" value="мм" style="strokeWidth=1;shadow=0;dashed=0;align=center;html=1;shape=mxgraph.mockup.forms.comboBox;strokeColor=#999999;fillColor=#ddeeff;align=left;fillColor2=#aaddff;mainText=;fontColor=#666666;fontSize=12;spacingLeft=3;" parent="1" vertex="1">
          <mxGeometry x="1610" y="710" width="90" height="33.5" as="geometry" />
        </mxCell>
        <mxCell id="8yjtcqBFSqYt93M6oK_Y-22" value="мм" style="strokeWidth=1;shadow=0;dashed=0;align=center;html=1;shape=mxgraph.mockup.forms.comboBox;strokeColor=#999999;fillColor=#ddeeff;align=left;fillColor2=#aaddff;mainText=;fontColor=#666666;fontSize=12;spacingLeft=3;" parent="1" vertex="1">
          <mxGeometry x="1610" y="760" width="90" height="33.5" as="geometry" />
        </mxCell>
        <mxCell id="8yjtcqBFSqYt93M6oK_Y-23" value="123" style="strokeWidth=1;shadow=0;dashed=0;align=center;html=1;shape=mxgraph.mockup.text.textBox;align=left;fontSize=17;spacingLeft=4;spacingTop=-3;strokeColor=#82b366;mainText=;fillColor=#d5e8d4;gradientColor=#97d077;" parent="1" vertex="1">
          <mxGeometry x="1720" y="304" width="80" height="30" as="geometry" />
        </mxCell>
        <mxCell id="8yjtcqBFSqYt93M6oK_Y-24" value="122" style="strokeWidth=1;shadow=0;dashed=0;align=center;html=1;shape=mxgraph.mockup.text.textBox;align=left;fontSize=17;spacingLeft=4;spacingTop=-3;strokeColor=#b85450;mainText=;fillColor=#f8cecc;gradientColor=#ea6b66;" parent="1" vertex="1">
          <mxGeometry x="1720" y="370" width="80" height="30" as="geometry" />
        </mxCell>
        <mxCell id="8yjtcqBFSqYt93M6oK_Y-25" value="123" style="strokeWidth=1;shadow=0;dashed=0;align=center;html=1;shape=mxgraph.mockup.text.textBox;align=left;fontSize=17;spacingLeft=4;spacingTop=-3;strokeColor=#82b366;mainText=;fillColor=#d5e8d4;gradientColor=#97d077;" parent="1" vertex="1">
          <mxGeometry x="1720" y="430" width="80" height="30" as="geometry" />
        </mxCell>
        <mxCell id="8yjtcqBFSqYt93M6oK_Y-26" value="123" style="strokeWidth=1;shadow=0;dashed=0;align=center;html=1;shape=mxgraph.mockup.text.textBox;align=left;fontSize=17;spacingLeft=4;spacingTop=-3;strokeColor=#b85450;mainText=;fillColor=#f8cecc;gradientColor=#ea6b66;" parent="1" vertex="1">
          <mxGeometry x="1720" y="500" width="80" height="30" as="geometry" />
        </mxCell>
        <mxCell id="8yjtcqBFSqYt93M6oK_Y-27" value="123" style="strokeWidth=1;shadow=0;dashed=0;align=center;html=1;shape=mxgraph.mockup.text.textBox;fontColor=#666666;align=left;fontSize=17;spacingLeft=4;spacingTop=-3;strokeColor=#666666;mainText=" parent="1" vertex="1">
          <mxGeometry x="1720" y="568.25" width="80" height="30" as="geometry" />
        </mxCell>
        <mxCell id="8yjtcqBFSqYt93M6oK_Y-28" value="123" style="strokeWidth=1;shadow=0;dashed=0;align=center;html=1;shape=mxgraph.mockup.text.textBox;align=left;fontSize=17;spacingLeft=4;spacingTop=-3;strokeColor=#b85450;mainText=;fillColor=#f8cecc;gradientColor=#ea6b66;" parent="1" vertex="1">
          <mxGeometry x="1720" y="640" width="80" height="30" as="geometry" />
        </mxCell>
        <mxCell id="8yjtcqBFSqYt93M6oK_Y-29" value="" style="strokeWidth=1;shadow=0;dashed=0;align=center;html=1;shape=mxgraph.mockup.text.textBox;fontColor=#666666;align=left;fontSize=17;spacingLeft=4;spacingTop=-3;strokeColor=#666666;mainText=" parent="1" vertex="1">
          <mxGeometry x="1720" y="710" width="80" height="30" as="geometry" />
        </mxCell>
        <mxCell id="8yjtcqBFSqYt93M6oK_Y-30" value="" style="strokeWidth=1;shadow=0;dashed=0;align=center;html=1;shape=mxgraph.mockup.text.textBox;fontColor=#666666;align=left;fontSize=17;spacingLeft=4;spacingTop=-3;strokeColor=#666666;mainText=" parent="1" vertex="1">
          <mxGeometry x="1720" y="760" width="80" height="30" as="geometry" />
        </mxCell>
        <UserObject label="123" placeholders="1" name="Variable" id="8yjtcqBFSqYt93M6oK_Y-32">
          <mxCell style="text;html=1;strokeColor=#82b366;fillColor=#d5e8d4;align=left;verticalAlign=middle;whiteSpace=wrap;overflow=hidden;gradientColor=#97d077;" parent="1" vertex="1">
            <mxGeometry x="1905" y="306.5" width="80" height="30" as="geometry" />
          </mxCell>
        </UserObject>
        <UserObject label="123" placeholders="1" name="Variable" id="8yjtcqBFSqYt93M6oK_Y-33">
          <mxCell style="text;html=1;strokeColor=#82b366;fillColor=#d5e8d4;align=left;verticalAlign=middle;whiteSpace=wrap;overflow=hidden;gradientColor=#97d077;" parent="1" vertex="1">
            <mxGeometry x="1905" y="371.5" width="80" height="30" as="geometry" />
          </mxCell>
        </UserObject>
        <UserObject label="100" placeholders="1" name="Variable" id="8yjtcqBFSqYt93M6oK_Y-34">
          <mxCell style="text;html=1;strokeColor=#82b366;fillColor=#d5e8d4;align=left;verticalAlign=middle;whiteSpace=wrap;overflow=hidden;gradientColor=#97d077;" parent="1" vertex="1">
            <mxGeometry x="1905" y="431.5" width="80" height="30" as="geometry" />
          </mxCell>
        </UserObject>
        <UserObject label="100" placeholders="1" name="Variable" id="8yjtcqBFSqYt93M6oK_Y-35">
          <mxCell style="text;html=1;strokeColor=#82b366;fillColor=#d5e8d4;align=left;verticalAlign=middle;whiteSpace=wrap;overflow=hidden;gradientColor=#97d077;" parent="1" vertex="1">
            <mxGeometry x="1905" y="501.5" width="80" height="30" as="geometry" />
          </mxCell>
        </UserObject>
        <UserObject label="100" placeholders="1" name="Variable" id="8yjtcqBFSqYt93M6oK_Y-36">
          <mxCell style="text;html=1;strokeColor=#82b366;fillColor=#d5e8d4;align=left;verticalAlign=middle;whiteSpace=wrap;overflow=hidden;gradientColor=#97d077;" parent="1" vertex="1">
            <mxGeometry x="1905" y="569.75" width="80" height="30" as="geometry" />
          </mxCell>
        </UserObject>
        <UserObject label="100" placeholders="1" name="Variable" id="8yjtcqBFSqYt93M6oK_Y-37">
          <mxCell style="text;html=1;strokeColor=#82b366;fillColor=#d5e8d4;align=left;verticalAlign=middle;whiteSpace=wrap;overflow=hidden;gradientColor=#97d077;" parent="1" vertex="1">
            <mxGeometry x="1905" y="641.5" width="80" height="30" as="geometry" />
          </mxCell>
        </UserObject>
        <UserObject label="0" placeholders="1" name="Variable" id="8yjtcqBFSqYt93M6oK_Y-38">
          <mxCell style="text;html=1;strokeColor=#82b366;fillColor=#d5e8d4;align=left;verticalAlign=middle;whiteSpace=wrap;overflow=hidden;gradientColor=#97d077;" parent="1" vertex="1">
            <mxGeometry x="1905" y="711.5" width="80" height="30" as="geometry" />
          </mxCell>
        </UserObject>
        <UserObject label="0" placeholders="1" name="Variable" id="8yjtcqBFSqYt93M6oK_Y-39">
          <mxCell style="text;html=1;strokeColor=#82b366;fillColor=#d5e8d4;align=left;verticalAlign=middle;whiteSpace=wrap;overflow=hidden;gradientColor=#97d077;" parent="1" vertex="1">
            <mxGeometry x="1905" y="761.5" width="80" height="30" as="geometry" />
          </mxCell>
        </UserObject>
        <UserObject label="№ п/п" placeholders="1" name="Variable" id="8yjtcqBFSqYt93M6oK_Y-40">
          <mxCell style="text;html=1;strokeColor=#23445d;fillColor=#bac8d3;align=left;verticalAlign=middle;whiteSpace=wrap;overflow=hidden;" parent="1" vertex="1">
            <mxGeometry x="1216" y="269" width="44" height="30" as="geometry" />
          </mxCell>
        </UserObject>
        <UserObject label="Показатель" placeholders="1" name="Variable" id="8yjtcqBFSqYt93M6oK_Y-42">
          <mxCell style="text;html=1;strokeColor=#23445d;fillColor=#bac8d3;align=left;verticalAlign=middle;whiteSpace=wrap;overflow=hidden;" parent="1" vertex="1">
            <mxGeometry x="1270" y="269" width="320" height="30" as="geometry" />
          </mxCell>
        </UserObject>
        <UserObject label="Ед.измерения" placeholders="1" name="Variable" id="8yjtcqBFSqYt93M6oK_Y-43">
          <mxCell style="text;html=1;strokeColor=#23445d;fillColor=#bac8d3;align=left;verticalAlign=middle;whiteSpace=wrap;overflow=hidden;" parent="1" vertex="1">
            <mxGeometry x="1610" y="269" width="90" height="30" as="geometry" />
          </mxCell>
        </UserObject>
        <UserObject label="Величина" placeholders="1" name="Variable" id="8yjtcqBFSqYt93M6oK_Y-44">
          <mxCell style="text;html=1;strokeColor=#23445d;fillColor=#bac8d3;align=left;verticalAlign=middle;whiteSpace=wrap;overflow=hidden;" parent="1" vertex="1">
            <mxGeometry x="1720" y="269" width="80" height="30" as="geometry" />
          </mxCell>
        </UserObject>
        <UserObject label="Норма мин" placeholders="1" name="Variable" id="8yjtcqBFSqYt93M6oK_Y-45">
          <mxCell style="text;html=1;strokeColor=#23445d;fillColor=#bac8d3;align=left;verticalAlign=middle;whiteSpace=wrap;overflow=hidden;" parent="1" vertex="1">
            <mxGeometry x="1905" y="270.5" width="80" height="30" as="geometry" />
          </mxCell>
        </UserObject>
        <mxCell id="8yjtcqBFSqYt93M6oK_Y-46" value="" style="shape=mxgraph.mockup.containers.marginRect;rectMarginTop=10;strokeColor=#666666;strokeWidth=1;dashed=0;rounded=1;arcSize=5;recursiveResize=0;fontSize=12;" parent="1" vertex="1">
          <mxGeometry x="290" y="375" width="460" height="510" as="geometry" />
        </mxCell>
        <mxCell id="8yjtcqBFSqYt93M6oK_Y-47" value="Оборудование" style="shape=rect;strokeColor=none;fillColor=#008cff;strokeWidth=1;dashed=0;rounded=1;arcSize=20;fontColor=#ffffff;fontSize=17;spacing=2;spacingTop=-2;align=left;autosize=1;spacingLeft=4;resizeWidth=0;resizeHeight=0;perimeter=none;" parent="8yjtcqBFSqYt93M6oK_Y-46" vertex="1">
          <mxGeometry x="5" width="140" height="30" as="geometry" />
        </mxCell>
        <mxCell id="jaOsvdT_Qn9ZSt324EDw-1" value="Вагон SN1 NNN1" style="html=1;" parent="8yjtcqBFSqYt93M6oK_Y-46" vertex="1">
          <mxGeometry x="20" y="50" width="110" height="30" as="geometry" />
        </mxCell>
        <mxCell id="jaOsvdT_Qn9ZSt324EDw-6" value="Левая боковая рама" style="html=1;" parent="8yjtcqBFSqYt93M6oK_Y-46" vertex="1">
          <mxGeometry x="80" y="90" width="138" height="30" as="geometry" />
        </mxCell>
        <mxCell id="jaOsvdT_Qn9ZSt324EDw-7" value="Правая боковая рама" style="html=1;" parent="8yjtcqBFSqYt93M6oK_Y-46" vertex="1">
          <mxGeometry x="80" y="130" width="138" height="30" as="geometry" />
        </mxCell>
        <mxCell id="jaOsvdT_Qn9ZSt324EDw-8" value="Надрессорная балка" style="html=1;" parent="8yjtcqBFSqYt93M6oK_Y-46" vertex="1">
          <mxGeometry x="80" y="170" width="138" height="30" as="geometry" />
        </mxCell>
        <mxCell id="jaOsvdT_Qn9ZSt324EDw-2" value="Тележка" style="html=1;" parent="8yjtcqBFSqYt93M6oK_Y-46" vertex="1">
          <mxGeometry x="80" y="210" width="138" height="30" as="geometry" />
        </mxCell>
        <mxCell id="jaOsvdT_Qn9ZSt324EDw-4" value="Левая боковая рама" style="html=1;fillColor=#dae8fc;gradientColor=#7ea6e0;strokeColor=#6c8ebf;" parent="8yjtcqBFSqYt93M6oK_Y-46" vertex="1">
          <mxGeometry x="150" y="252" width="138" height="30" as="geometry" />
        </mxCell>
        <mxCell id="jaOsvdT_Qn9ZSt324EDw-5" value="Правая боковая рама" style="html=1;" parent="8yjtcqBFSqYt93M6oK_Y-46" vertex="1">
          <mxGeometry x="150" y="290" width="138" height="30" as="geometry" />
        </mxCell>
        <mxCell id="jaOsvdT_Qn9ZSt324EDw-3" value="Соединительная балка" style="html=1;" parent="8yjtcqBFSqYt93M6oK_Y-46" vertex="1">
          <mxGeometry x="80" y="330" width="138" height="30" as="geometry" />
        </mxCell>
        <mxCell id="jaOsvdT_Qn9ZSt324EDw-11" style="edgeStyle=orthogonalEdgeStyle;rounded=0;orthogonalLoop=1;jettySize=auto;html=1;exitX=0.25;exitY=1;exitDx=0;exitDy=0;entryX=0;entryY=0.5;entryDx=0;entryDy=0;endArrow=none;endFill=0;" parent="8yjtcqBFSqYt93M6oK_Y-46" source="jaOsvdT_Qn9ZSt324EDw-1" target="jaOsvdT_Qn9ZSt324EDw-6" edge="1">
          <mxGeometry relative="1" as="geometry" />
        </mxCell>
        <mxCell id="jaOsvdT_Qn9ZSt324EDw-12" style="edgeStyle=orthogonalEdgeStyle;rounded=0;orthogonalLoop=1;jettySize=auto;html=1;exitX=0.25;exitY=1;exitDx=0;exitDy=0;entryX=0;entryY=0.5;entryDx=0;entryDy=0;endArrow=none;endFill=0;" parent="8yjtcqBFSqYt93M6oK_Y-46" source="jaOsvdT_Qn9ZSt324EDw-1" target="jaOsvdT_Qn9ZSt324EDw-7" edge="1">
          <mxGeometry relative="1" as="geometry" />
        </mxCell>
        <mxCell id="jaOsvdT_Qn9ZSt324EDw-13" style="edgeStyle=orthogonalEdgeStyle;rounded=0;orthogonalLoop=1;jettySize=auto;html=1;exitX=0.25;exitY=1;exitDx=0;exitDy=0;entryX=0;entryY=0.5;entryDx=0;entryDy=0;endArrow=none;endFill=0;" parent="8yjtcqBFSqYt93M6oK_Y-46" source="jaOsvdT_Qn9ZSt324EDw-1" target="jaOsvdT_Qn9ZSt324EDw-8" edge="1">
          <mxGeometry relative="1" as="geometry" />
        </mxCell>
        <mxCell id="jaOsvdT_Qn9ZSt324EDw-14" style="edgeStyle=orthogonalEdgeStyle;rounded=0;orthogonalLoop=1;jettySize=auto;html=1;exitX=0.25;exitY=1;exitDx=0;exitDy=0;entryX=0;entryY=0.5;entryDx=0;entryDy=0;endArrow=none;endFill=0;" parent="8yjtcqBFSqYt93M6oK_Y-46" source="jaOsvdT_Qn9ZSt324EDw-1" target="jaOsvdT_Qn9ZSt324EDw-2" edge="1">
          <mxGeometry relative="1" as="geometry" />
        </mxCell>
        <mxCell id="jaOsvdT_Qn9ZSt324EDw-15" style="edgeStyle=orthogonalEdgeStyle;rounded=0;orthogonalLoop=1;jettySize=auto;html=1;exitX=0.25;exitY=1;exitDx=0;exitDy=0;entryX=0;entryY=0.5;entryDx=0;entryDy=0;endArrow=none;endFill=0;" parent="8yjtcqBFSqYt93M6oK_Y-46" source="jaOsvdT_Qn9ZSt324EDw-2" target="jaOsvdT_Qn9ZSt324EDw-4" edge="1">
          <mxGeometry relative="1" as="geometry" />
        </mxCell>
        <mxCell id="jaOsvdT_Qn9ZSt324EDw-16" style="edgeStyle=orthogonalEdgeStyle;rounded=0;orthogonalLoop=1;jettySize=auto;html=1;exitX=0.25;exitY=1;exitDx=0;exitDy=0;entryX=0;entryY=0.5;entryDx=0;entryDy=0;endArrow=none;endFill=0;" parent="8yjtcqBFSqYt93M6oK_Y-46" source="jaOsvdT_Qn9ZSt324EDw-2" target="jaOsvdT_Qn9ZSt324EDw-5" edge="1">
          <mxGeometry relative="1" as="geometry" />
        </mxCell>
        <mxCell id="jaOsvdT_Qn9ZSt324EDw-17" style="edgeStyle=orthogonalEdgeStyle;rounded=0;orthogonalLoop=1;jettySize=auto;html=1;exitX=0.25;exitY=1;exitDx=0;exitDy=0;entryX=0;entryY=0.5;entryDx=0;entryDy=0;endArrow=none;endFill=0;" parent="8yjtcqBFSqYt93M6oK_Y-46" source="jaOsvdT_Qn9ZSt324EDw-1" target="jaOsvdT_Qn9ZSt324EDw-3" edge="1">
          <mxGeometry relative="1" as="geometry" />
        </mxCell>
        <mxCell id="8yjtcqBFSqYt93M6oK_Y-53" value="" style="shape=mxgraph.mockup.containers.marginRect;rectMarginTop=10;strokeColor=#36393d;strokeWidth=1;dashed=0;rounded=1;arcSize=5;recursiveResize=0;fontSize=12;fillColor=#ffff88;" parent="1" vertex="1">
          <mxGeometry x="760" y="375" width="410" height="510" as="geometry" />
        </mxCell>
        <mxCell id="8yjtcqBFSqYt93M6oK_Y-54" value="Характеристики" style="shape=rect;strokeColor=none;fillColor=#008cff;strokeWidth=1;dashed=0;rounded=1;arcSize=20;fontColor=#ffffff;fontSize=17;spacing=2;spacingTop=-2;align=left;autosize=1;spacingLeft=4;resizeWidth=0;resizeHeight=0;perimeter=none;" parent="8yjtcqBFSqYt93M6oK_Y-53" vertex="1">
          <mxGeometry x="5" width="150" height="30" as="geometry" />
        </mxCell>
        <UserObject label="№ п/п" placeholders="1" name="Variable" id="8yjtcqBFSqYt93M6oK_Y-51">
          <mxCell style="text;html=1;strokeColor=#23445d;fillColor=#bac8d3;align=left;verticalAlign=middle;whiteSpace=wrap;overflow=hidden;" parent="8yjtcqBFSqYt93M6oK_Y-53" vertex="1">
            <mxGeometry x="5" y="50" width="44" height="30" as="geometry" />
          </mxCell>
        </UserObject>
        <UserObject label="Характеристика" placeholders="1" name="Variable" id="8yjtcqBFSqYt93M6oK_Y-52">
          <mxCell style="text;html=1;strokeColor=#23445d;fillColor=#bac8d3;align=left;verticalAlign=middle;whiteSpace=wrap;overflow=hidden;" parent="8yjtcqBFSqYt93M6oK_Y-53" vertex="1">
            <mxGeometry x="59" y="50" width="211" height="30" as="geometry" />
          </mxCell>
        </UserObject>
        <UserObject label="1" placeholders="1" name="Variable" id="8yjtcqBFSqYt93M6oK_Y-55">
          <mxCell style="text;html=1;strokeColor=none;fillColor=none;align=left;verticalAlign=middle;whiteSpace=wrap;overflow=hidden;" parent="8yjtcqBFSqYt93M6oK_Y-53" vertex="1">
            <mxGeometry x="12" y="100" width="30" height="20" as="geometry" />
          </mxCell>
        </UserObject>
        <UserObject label="Последний выполненный ремонт" placeholders="1" name="Variable" id="8yjtcqBFSqYt93M6oK_Y-56">
          <mxCell style="text;html=1;strokeColor=none;fillColor=none;align=left;verticalAlign=middle;whiteSpace=wrap;overflow=hidden;" parent="8yjtcqBFSqYt93M6oK_Y-53" vertex="1">
            <mxGeometry x="59" y="100" width="211" height="20" as="geometry" />
          </mxCell>
        </UserObject>
        <UserObject label="Значение" placeholders="1" name="Variable" id="8yjtcqBFSqYt93M6oK_Y-57">
          <mxCell style="text;html=1;strokeColor=#23445d;fillColor=#bac8d3;align=left;verticalAlign=middle;whiteSpace=wrap;overflow=hidden;" parent="8yjtcqBFSqYt93M6oK_Y-53" vertex="1">
            <mxGeometry x="280" y="50" width="100.5" height="30" as="geometry" />
          </mxCell>
        </UserObject>
        <UserObject label="Ремонт" placeholders="1" name="Variable" id="8yjtcqBFSqYt93M6oK_Y-58">
          <mxCell style="text;html=1;strokeColor=none;fillColor=none;align=left;verticalAlign=middle;whiteSpace=wrap;overflow=hidden;" parent="8yjtcqBFSqYt93M6oK_Y-53" vertex="1">
            <mxGeometry x="280" y="100" width="90" height="20" as="geometry" />
          </mxCell>
        </UserObject>
        <mxCell id="8yjtcqBFSqYt93M6oK_Y-59" value="Измерения" style="strokeWidth=1;shadow=0;dashed=0;align=center;html=1;shape=mxgraph.mockup.forms.uRect;fontSize=17;fontColor=#000000;align=left;spacingLeft=5;strokeColor=#666666;fillColor=#66FFB3;" parent="1" vertex="1">
          <mxGeometry x="290" y="334" width="110" height="30" as="geometry" />
        </mxCell>
        <mxCell id="8yjtcqBFSqYt93M6oK_Y-86" style="edgeStyle=orthogonalEdgeStyle;rounded=0;orthogonalLoop=1;jettySize=auto;html=1;fontSize=12;fontColor=#000000;endArrow=none;endFill=0;strokeWidth=2;fillColor=#dae8fc;gradientColor=#7ea6e0;strokeColor=#3333FF;" parent="1" source="8yjtcqBFSqYt93M6oK_Y-60" target="8yjtcqBFSqYt93M6oK_Y-84" edge="1">
          <mxGeometry relative="1" as="geometry">
            <Array as="points">
              <mxPoint x="690" y="350" />
            </Array>
          </mxGeometry>
        </mxCell>
        <mxCell id="8yjtcqBFSqYt93M6oK_Y-60" value="Подписи" style="strokeWidth=1;shadow=0;dashed=0;align=center;html=1;shape=mxgraph.mockup.forms.uRect;fontSize=17;fontColor=#000000;align=left;spacingLeft=5;strokeColor=#008cff;fillColor=#FFFFFF;" parent="1" vertex="1">
          <mxGeometry x="410" y="335" width="85" height="30" as="geometry" />
        </mxCell>
        <UserObject label="Примечания, описание" placeholders="1" name="Variable" id="8yjtcqBFSqYt93M6oK_Y-66">
          <mxCell style="text;html=1;strokeColor=none;fillColor=none;align=left;verticalAlign=middle;whiteSpace=wrap;overflow=hidden;" parent="1" vertex="1">
            <mxGeometry x="1230" y="830" width="140" height="20" as="geometry" />
          </mxCell>
        </UserObject>
        <mxCell id="8yjtcqBFSqYt93M6oK_Y-67" value="" style="strokeWidth=1;shadow=0;dashed=0;align=center;html=1;shape=mxgraph.mockup.text.textBox;fontColor=#666666;align=left;fontSize=17;spacingLeft=4;spacingTop=-3;strokeColor=#666666;mainText=" parent="1" vertex="1">
          <mxGeometry x="1230" y="905" width="380" height="30" as="geometry" />
        </mxCell>
        <mxCell id="8yjtcqBFSqYt93M6oK_Y-84" value="" style="shape=mxgraph.mockup.containers.marginRect;rectMarginTop=10;strokeColor=#36393d;strokeWidth=1;dashed=0;rounded=1;arcSize=5;recursiveResize=0;fontSize=12;fillColor=#ffff88;" parent="1" vertex="1">
          <mxGeometry x="380" y="1275" width="760" height="200" as="geometry" />
        </mxCell>
        <mxCell id="8yjtcqBFSqYt93M6oK_Y-85" value="Подписи" style="shape=rect;strokeColor=none;fillColor=#008cff;strokeWidth=1;dashed=0;rounded=1;arcSize=20;fontColor=#ffffff;fontSize=17;spacing=2;spacingTop=-2;align=left;autosize=1;spacingLeft=4;resizeWidth=0;resizeHeight=0;perimeter=none;" parent="8yjtcqBFSqYt93M6oK_Y-84" vertex="1">
          <mxGeometry x="5" width="90" height="30" as="geometry" />
        </mxCell>
        <mxCell id="8yjtcqBFSqYt93M6oK_Y-68" value="Дефектоскопист" style="strokeWidth=1;shadow=0;dashed=0;align=center;html=1;shape=mxgraph.mockup.forms.comboBox;strokeColor=#999999;fillColor=#ddeeff;align=left;fillColor2=#aaddff;mainText=;fontColor=#666666;fontSize=12;spacingLeft=3;" parent="8yjtcqBFSqYt93M6oK_Y-84" vertex="1">
          <mxGeometry x="90.5" y="86" width="320" height="34" as="geometry" />
        </mxCell>
        <UserObject label="1" placeholders="1" name="Variable" id="8yjtcqBFSqYt93M6oK_Y-69">
          <mxCell style="text;html=1;strokeColor=none;fillColor=none;align=left;verticalAlign=middle;whiteSpace=wrap;overflow=hidden;" parent="8yjtcqBFSqYt93M6oK_Y-84" vertex="1">
            <mxGeometry x="36.5" y="86" width="30" height="20" as="geometry" />
          </mxCell>
        </UserObject>
        <UserObject label="Да" placeholders="1" name="Variable" id="8yjtcqBFSqYt93M6oK_Y-72">
          <mxCell style="text;html=1;strokeColor=#82b366;fillColor=#d5e8d4;align=left;verticalAlign=middle;whiteSpace=wrap;overflow=hidden;gradientColor=#97d077;" parent="8yjtcqBFSqYt93M6oK_Y-84" vertex="1">
            <mxGeometry x="640.5" y="86" width="80" height="30" as="geometry" />
          </mxCell>
        </UserObject>
        <UserObject label="№ п/п" placeholders="1" name="Variable" id="8yjtcqBFSqYt93M6oK_Y-73">
          <mxCell style="text;html=1;strokeColor=#23445d;fillColor=#bac8d3;align=left;verticalAlign=middle;whiteSpace=wrap;overflow=hidden;" parent="8yjtcqBFSqYt93M6oK_Y-84" vertex="1">
            <mxGeometry x="36.5" y="50" width="44" height="30" as="geometry" />
          </mxCell>
        </UserObject>
        <UserObject label="Должность" placeholders="1" name="Variable" id="8yjtcqBFSqYt93M6oK_Y-74">
          <mxCell style="text;html=1;strokeColor=#23445d;fillColor=#bac8d3;align=left;verticalAlign=middle;whiteSpace=wrap;overflow=hidden;" parent="8yjtcqBFSqYt93M6oK_Y-84" vertex="1">
            <mxGeometry x="90.5" y="50" width="320" height="30" as="geometry" />
          </mxCell>
        </UserObject>
        <UserObject label="Работник" placeholders="1" name="Variable" id="8yjtcqBFSqYt93M6oK_Y-76">
          <mxCell style="text;html=1;strokeColor=#23445d;fillColor=#bac8d3;align=left;verticalAlign=middle;whiteSpace=wrap;overflow=hidden;" parent="8yjtcqBFSqYt93M6oK_Y-84" vertex="1">
            <mxGeometry x="421.5" y="50" width="210" height="30" as="geometry" />
          </mxCell>
        </UserObject>
        <UserObject label="Согласовано" placeholders="1" name="Variable" id="8yjtcqBFSqYt93M6oK_Y-77">
          <mxCell style="text;html=1;strokeColor=#23445d;fillColor=#bac8d3;align=left;verticalAlign=middle;whiteSpace=wrap;overflow=hidden;" parent="8yjtcqBFSqYt93M6oK_Y-84" vertex="1">
            <mxGeometry x="640.5" y="50" width="80" height="30" as="geometry" />
          </mxCell>
        </UserObject>
        <mxCell id="8yjtcqBFSqYt93M6oK_Y-78" value="Бригадир" style="strokeWidth=1;shadow=0;dashed=0;align=center;html=1;shape=mxgraph.mockup.forms.comboBox;strokeColor=#999999;fillColor=#ddeeff;align=left;fillColor2=#aaddff;mainText=;fontColor=#666666;fontSize=12;spacingLeft=3;" parent="8yjtcqBFSqYt93M6oK_Y-84" vertex="1">
          <mxGeometry x="90.5" y="130" width="320" height="34" as="geometry" />
        </mxCell>
        <UserObject label="2" placeholders="1" name="Variable" id="8yjtcqBFSqYt93M6oK_Y-79">
          <mxCell style="text;html=1;strokeColor=none;fillColor=none;align=left;verticalAlign=middle;whiteSpace=wrap;overflow=hidden;" parent="8yjtcqBFSqYt93M6oK_Y-84" vertex="1">
            <mxGeometry x="36.5" y="130" width="30" height="20" as="geometry" />
          </mxCell>
        </UserObject>
        <UserObject label="Нет" placeholders="1" name="Variable" id="8yjtcqBFSqYt93M6oK_Y-81">
          <mxCell style="text;html=1;strokeColor=#d6b656;fillColor=#fff2cc;align=left;verticalAlign=middle;whiteSpace=wrap;overflow=hidden;gradientColor=#ffd966;" parent="8yjtcqBFSqYt93M6oK_Y-84" vertex="1">
            <mxGeometry x="640.5" y="130" width="80" height="30" as="geometry" />
          </mxCell>
        </UserObject>
        <mxCell id="8yjtcqBFSqYt93M6oK_Y-82" value="Abcd Efgh" style="strokeWidth=1;shadow=0;dashed=0;align=center;html=1;shape=mxgraph.mockup.forms.comboBox;strokeColor=#999999;fillColor=#ddeeff;align=left;fillColor2=#aaddff;mainText=;fontColor=#666666;fontSize=12;spacingLeft=3;" parent="8yjtcqBFSqYt93M6oK_Y-84" vertex="1">
          <mxGeometry x="421.5" y="86" width="210" height="34" as="geometry" />
        </mxCell>
        <mxCell id="8yjtcqBFSqYt93M6oK_Y-83" value="Ijkl Mnop" style="strokeWidth=1;shadow=0;dashed=0;align=center;html=1;shape=mxgraph.mockup.forms.comboBox;strokeColor=#999999;fillColor=#ddeeff;align=left;fillColor2=#aaddff;mainText=;fontColor=#666666;fontSize=12;spacingLeft=3;" parent="8yjtcqBFSqYt93M6oK_Y-84" vertex="1">
          <mxGeometry x="421.5" y="130" width="210" height="34" as="geometry" />
        </mxCell>
        <UserObject label="Норма макс" placeholders="1" name="Variable" id="YI91nUEzlamcuq8S2QyS-1">
          <mxCell style="text;html=1;strokeColor=#23445d;fillColor=#bac8d3;align=left;verticalAlign=middle;whiteSpace=wrap;overflow=hidden;" parent="1" vertex="1">
            <mxGeometry x="2000" y="270.5" width="80" height="30" as="geometry" />
          </mxCell>
        </UserObject>
        <mxCell id="MI3Mp1opwpk6zmpXi5Fe-1" value="Может быть boolean: да/нет" style="whiteSpace=wrap;html=1;fontSize=17;align=left;fillColor=#ddeeff;strokeColor=#999999;fontColor=#666666;strokeWidth=1;shadow=0;dashed=0;spacingLeft=3;" vertex="1" parent="1">
          <mxGeometry x="1660" y="-40" width="230" height="60" as="geometry" />
        </mxCell>
        <UserObject label="0" placeholders="1" name="Variable" id="MI3Mp1opwpk6zmpXi5Fe-2">
          <mxCell style="text;html=1;strokeColor=#666666;fillColor=#f5f5f5;align=left;verticalAlign=middle;whiteSpace=wrap;overflow=hidden;gradientColor=#b3b3b3;" vertex="1" parent="1">
            <mxGeometry x="2000" y="306.5" width="80" height="30" as="geometry" />
          </mxCell>
        </UserObject>
        <UserObject label="0" placeholders="1" name="Variable" id="MI3Mp1opwpk6zmpXi5Fe-3">
          <mxCell style="text;html=1;strokeColor=#666666;fillColor=#f5f5f5;align=left;verticalAlign=middle;whiteSpace=wrap;overflow=hidden;gradientColor=#b3b3b3;" vertex="1" parent="1">
            <mxGeometry x="2000" y="371.5" width="80" height="30" as="geometry" />
          </mxCell>
        </UserObject>
        <UserObject label="150" placeholders="1" name="Variable" id="MI3Mp1opwpk6zmpXi5Fe-4">
          <mxCell style="text;html=1;strokeColor=#82b366;fillColor=#d5e8d4;align=left;verticalAlign=middle;whiteSpace=wrap;overflow=hidden;gradientColor=#97d077;" vertex="1" parent="1">
            <mxGeometry x="2000" y="431.5" width="80" height="30" as="geometry" />
          </mxCell>
        </UserObject>
        <UserObject label="150" placeholders="1" name="Variable" id="MI3Mp1opwpk6zmpXi5Fe-5">
          <mxCell style="text;html=1;strokeColor=#82b366;fillColor=#d5e8d4;align=left;verticalAlign=middle;whiteSpace=wrap;overflow=hidden;gradientColor=#97d077;" vertex="1" parent="1">
            <mxGeometry x="2000" y="501.5" width="80" height="30" as="geometry" />
          </mxCell>
        </UserObject>
        <UserObject label="0" placeholders="1" name="Variable" id="MI3Mp1opwpk6zmpXi5Fe-6">
          <mxCell style="text;html=1;strokeColor=#666666;fillColor=#f5f5f5;align=left;verticalAlign=middle;whiteSpace=wrap;overflow=hidden;gradientColor=#b3b3b3;" vertex="1" parent="1">
            <mxGeometry x="2000" y="569.75" width="80" height="30" as="geometry" />
          </mxCell>
        </UserObject>
        <UserObject label="0" placeholders="1" name="Variable" id="MI3Mp1opwpk6zmpXi5Fe-7">
          <mxCell style="text;html=1;strokeColor=#666666;fillColor=#f5f5f5;align=left;verticalAlign=middle;whiteSpace=wrap;overflow=hidden;gradientColor=#b3b3b3;" vertex="1" parent="1">
            <mxGeometry x="2000" y="641.5" width="80" height="30" as="geometry" />
          </mxCell>
        </UserObject>
        <UserObject label="0" placeholders="1" name="Variable" id="MI3Mp1opwpk6zmpXi5Fe-8">
          <mxCell style="text;html=1;strokeColor=#666666;fillColor=#f5f5f5;align=left;verticalAlign=middle;whiteSpace=wrap;overflow=hidden;gradientColor=#b3b3b3;" vertex="1" parent="1">
            <mxGeometry x="2000" y="711.5" width="80" height="30" as="geometry" />
          </mxCell>
        </UserObject>
        <UserObject label="0" placeholders="1" name="Variable" id="MI3Mp1opwpk6zmpXi5Fe-9">
          <mxCell style="text;html=1;strokeColor=#666666;fillColor=#f5f5f5;align=left;verticalAlign=middle;whiteSpace=wrap;overflow=hidden;gradientColor=#b3b3b3;" vertex="1" parent="1">
            <mxGeometry x="2000" y="761.5" width="80" height="30" as="geometry" />
          </mxCell>
        </UserObject>
        <UserObject label="Отношение" placeholders="1" name="Variable" id="MI3Mp1opwpk6zmpXi5Fe-11">
          <mxCell style="text;html=1;strokeColor=#23445d;fillColor=#bac8d3;align=left;verticalAlign=middle;whiteSpace=wrap;overflow=hidden;" vertex="1" parent="1">
            <mxGeometry x="1815" y="269" width="80" height="30" as="geometry" />
          </mxCell>
        </UserObject>
        <mxCell id="MI3Mp1opwpk6zmpXi5Fe-12" value="=" style="strokeWidth=1;shadow=0;dashed=0;align=center;html=1;shape=mxgraph.mockup.forms.comboBox;strokeColor=#999999;fillColor=#ddeeff;align=left;fillColor2=#aaddff;mainText=;fontColor=#666666;fontSize=18;spacingLeft=3;" vertex="1" parent="1">
          <mxGeometry x="1816" y="304" width="79" height="33.5" as="geometry" />
        </mxCell>
        <mxCell id="MI3Mp1opwpk6zmpXi5Fe-13" value="=" style="strokeWidth=1;shadow=0;dashed=0;align=center;html=1;shape=mxgraph.mockup.forms.comboBox;strokeColor=#999999;fillColor=#ddeeff;align=left;fillColor2=#aaddff;mainText=;fontColor=#666666;fontSize=18;spacingLeft=3;" vertex="1" parent="1">
          <mxGeometry x="1816" y="370" width="79" height="33.5" as="geometry" />
        </mxCell>
        <mxCell id="MI3Mp1opwpk6zmpXi5Fe-14" value="между" style="strokeWidth=1;shadow=0;dashed=0;align=center;html=1;shape=mxgraph.mockup.forms.comboBox;strokeColor=#999999;fillColor=#ddeeff;align=left;fillColor2=#aaddff;mainText=;fontColor=#666666;fontSize=12;spacingLeft=3;" vertex="1" parent="1">
          <mxGeometry x="1816" y="428" width="79" height="33.5" as="geometry" />
        </mxCell>
        <mxCell id="MI3Mp1opwpk6zmpXi5Fe-15" value="вне" style="strokeWidth=1;shadow=0;dashed=0;align=center;html=1;shape=mxgraph.mockup.forms.comboBox;strokeColor=#999999;fillColor=#ddeeff;align=left;fillColor2=#aaddff;mainText=;fontColor=#666666;fontSize=12;spacingLeft=3;" vertex="1" parent="1">
          <mxGeometry x="1816" y="498.5" width="79" height="33.5" as="geometry" />
        </mxCell>
        <mxCell id="MI3Mp1opwpk6zmpXi5Fe-16" value="&amp;gt;" style="strokeWidth=1;shadow=0;dashed=0;align=center;html=1;shape=mxgraph.mockup.forms.comboBox;strokeColor=#999999;fillColor=#ddeeff;align=left;fillColor2=#aaddff;mainText=;fontColor=#666666;fontSize=18;spacingLeft=3;" vertex="1" parent="1">
          <mxGeometry x="1816" y="568.25" width="79" height="33.5" as="geometry" />
        </mxCell>
        <mxCell id="MI3Mp1opwpk6zmpXi5Fe-17" value="&amp;lt;" style="strokeWidth=1;shadow=0;dashed=0;align=center;html=1;shape=mxgraph.mockup.forms.comboBox;strokeColor=#999999;fillColor=#ddeeff;align=left;fillColor2=#aaddff;mainText=;fontColor=#666666;fontSize=18;spacingLeft=3;" vertex="1" parent="1">
          <mxGeometry x="1816" y="640" width="79" height="33.5" as="geometry" />
        </mxCell>
        <mxCell id="MI3Mp1opwpk6zmpXi5Fe-18" value="&lt;p class=&quot;MsoNormal&quot; style=&quot;font-size: 18px;&quot;&gt;&lt;span style=&quot;font-size: 18px;&quot; lang=&quot;RU&quot;&gt;≥&lt;/span&gt;&lt;br style=&quot;font-size: 18px;&quot;&gt;&lt;/p&gt;" style="strokeWidth=1;shadow=0;dashed=0;align=center;html=1;shape=mxgraph.mockup.forms.comboBox;strokeColor=#999999;fillColor=#ddeeff;align=left;fillColor2=#aaddff;mainText=;fontColor=#666666;fontSize=18;spacingLeft=3;" vertex="1" parent="1">
          <mxGeometry x="1816" y="711.5" width="79" height="33.5" as="geometry" />
        </mxCell>
        <mxCell id="MI3Mp1opwpk6zmpXi5Fe-19" value="=" style="strokeWidth=1;shadow=0;dashed=0;align=center;html=1;shape=mxgraph.mockup.forms.comboBox;strokeColor=#999999;fillColor=#ddeeff;align=left;fillColor2=#aaddff;mainText=;fontColor=#666666;fontSize=18;spacingLeft=3;" vertex="1" parent="1">
          <mxGeometry x="1816" y="760" width="79" height="33.5" as="geometry" />
        </mxCell>
        <mxCell id="rbq5VFDCJuqfMufn9LXK-1" value="" style="strokeWidth=1;shadow=0;dashed=0;align=center;html=1;shape=mxgraph.mockup.text.textBox;fontColor=#666666;align=left;fontSize=17;spacingLeft=4;spacingTop=-3;strokeColor=#666666;mainText=" vertex="1" parent="1">
          <mxGeometry x="1230" y="850" width="880" height="30" as="geometry" />
        </mxCell>
        <UserObject label="Проверку провел" placeholders="1" name="Variable" id="rbq5VFDCJuqfMufn9LXK-2">
          <mxCell style="text;html=1;strokeColor=none;fillColor=none;align=left;verticalAlign=middle;whiteSpace=wrap;overflow=hidden;" vertex="1" parent="1">
            <mxGeometry x="1230" y="885" width="140" height="20" as="geometry" />
          </mxCell>
        </UserObject>
        <UserObject label="" link="https://1.bp.blogspot.com/-BaY6sfQBnxI/VsnJTrTQrGI/AAAAAAAACv0/NYM6GKW56YU/s1600/%25D0%25B7%25D0%25B0%25D0%25B3%25D1%2580%25D1%2583%25D0%25B6%25D0%25B5%25D0%25BD%25D0%25BD%25D0%25BE%25D0%25B5.png" id="rbq5VFDCJuqfMufn9LXK-3">
          <mxCell style="shape=mxgraph.mockup.containers.marginRect;rectMarginTop=10;strokeColor=#666666;strokeWidth=1;dashed=0;rounded=1;arcSize=5;recursiveResize=0;" vertex="1" parent="1">
            <mxGeometry x="1230" y="950" width="880" height="240" as="geometry" />
          </mxCell>
        </UserObject>
        <mxCell id="rbq5VFDCJuqfMufn9LXK-4" value="Фото" style="shape=rect;strokeColor=none;fillColor=#008cff;strokeWidth=1;dashed=0;rounded=1;arcSize=20;fontColor=#ffffff;fontSize=17;spacing=2;spacingTop=-2;align=left;autosize=1;spacingLeft=4;resizeWidth=0;resizeHeight=0;perimeter=none;" vertex="1" parent="rbq5VFDCJuqfMufn9LXK-3">
          <mxGeometry x="5" width="60" height="30" as="geometry" />
        </mxCell>
        <mxCell id="rbq5VFDCJuqfMufn9LXK-8" value="" style="shape=image;imageAspect=0;aspect=fixed;verticalLabelPosition=bottom;verticalAlign=top;image=https://1.bp.blogspot.com/-BaY6sfQBnxI/VsnJTrTQrGI/AAAAAAAACv0/NYM6GKW56YU/s1600/%25D0%25B7%25D0%25B0%25D0%25B3%25D1%2580%25D1%2583%25D0%25B6%25D0%25B5%25D0%25BD%25D0%25BD%25D0%25BE%25D0%25B5.png;" vertex="1" parent="rbq5VFDCJuqfMufn9LXK-3">
          <mxGeometry x="80" y="25" width="243.75" height="180" as="geometry" />
        </mxCell>
        <mxCell id="rbq5VFDCJuqfMufn9LXK-9" value="" style="shape=image;imageAspect=0;aspect=fixed;verticalLabelPosition=bottom;verticalAlign=top;image=https://1.bp.blogspot.com/-ngvqc3M54i4/VsnLrKWsHDI/AAAAAAAACv8/jEvMBUpxbMQ/s1600/%25D0%25A1%25D0%25BD%25D0%25B8%25D0%25BC%25D0%25BE%25D0%25BA1.PNG;" vertex="1" parent="rbq5VFDCJuqfMufn9LXK-3">
          <mxGeometry x="350" y="25" width="258.22" height="145" as="geometry" />
        </mxCell>
        <mxCell id="rbq5VFDCJuqfMufn9LXK-10" value="Добавить" style="strokeWidth=1;shadow=0;dashed=0;align=center;html=1;shape=mxgraph.mockup.buttons.button;strokeColor=#666666;fontColor=#ffffff;mainText=;buttonStyle=round;fontSize=17;fontStyle=1;fillColor=#008cff;whiteSpace=wrap;" vertex="1" parent="1">
          <mxGeometry x="1780" y="900" width="150" height="50" as="geometry" />
        </mxCell>
        <mxCell id="rbq5VFDCJuqfMufn9LXK-11" value="Удалить" style="strokeWidth=1;shadow=0;dashed=0;align=center;html=1;shape=mxgraph.mockup.buttons.button;strokeColor=#666666;fontColor=#ffffff;mainText=;buttonStyle=round;fontSize=17;fontStyle=1;fillColor=#008cff;whiteSpace=wrap;" vertex="1" parent="1">
          <mxGeometry x="1950" y="900" width="150" height="50" as="geometry" />
        </mxCell>
      </root>
    </mxGraphModel>
  </diagram>
  <diagram id="W7GJ-nkrvP5AFGGBCBCJ" name="Параметры оборудования">
    <mxGraphModel dx="1422" dy="752" grid="1" gridSize="10" guides="1" tooltips="1" connect="1" arrows="1" fold="1" page="1" pageScale="1" pageWidth="850" pageHeight="1100" math="0" shadow="0">
      <root>
        <mxCell id="0" />
        <mxCell id="1" parent="0" />
      </root>
    </mxGraphModel>
  </diagram>
</mxfile>
